PathFileType	4	(X/Y/Z)	D:\TRACE\v60_Jaco2_6-2-23\JustArmDRS_Motion1_4-platform.trc
DataRate	CameraRate	NumFrames	NumMarkers	Units	OrigDataRate	OrigDataStartFrame	OrigNumFrames
100.00	100.00	      30	5	mm	100.00	3407	      6812
Frame#	Time	Left_Front			Right_Front			Left_Aft			Right_Aft			Post			
		X1	Y1	Z1	X2	Y2	Z2	X3	Y3	Z3	X4	Y4	Z4	X5	Y5	Z5	

3407	34.060	-793.99719	14.26678	-637.65002	775.88025	15.55034	-643.03906	-701.87555	3.59416	497.44626	740.18091	2.91451	507.28812	-7.66247	1316.38086	-950.04797	
3408	34.070	-795.24695	14.56573	-637.51526	775.09760	15.98449	-642.78387	-702.63861	3.26884	497.49780	739.34247	2.80811	507.33615	-8.43205	1317.08569	-948.73901	
3409	34.080	-796.06689	14.93692	-637.21692	774.02557	16.33909	-642.82202	-703.54584	2.92580	497.72552	738.32733	2.49972	507.44485	-8.98525	1317.54089	-947.69641	
3410	34.090	-796.74823	15.41925	-637.06055	772.96820	16.76833	-642.69116	-704.67908	2.61302	497.89371	737.47852	2.19486	507.55243	-10.33958	1318.17969	-946.61090	
3411	34.100	-798.02515	15.97325	-637.25391	772.04303	17.24471	-642.56714	-705.46045	2.39210	497.96481	736.01367	1.96325	507.80148	-11.05944	1318.62610	-945.58398	
3412	34.110	-799.06366	16.57014	-637.20691	771.14984	17.61169	-642.57513	-706.55182	2.07362	498.04996	735.18872	1.65174	507.93213	-12.19255	1319.34607	-944.64435	
3413	34.120	-799.69275	16.87855	-636.93555	770.32538	17.97200	-642.35016	-707.40765	1.80203	498.01938	734.63489	1.24543	507.94833	-12.93238	1319.88245	-943.84344	
3414	34.130	-800.51855	17.37378	-636.76868	769.00580	18.44584	-642.36176	-708.38770	1.48817	498.04187	733.20490	0.94904	508.10641	-13.87056	1320.48157	-943.18585	
3415	34.140	-801.74670	17.87861	-636.66528	768.30524	18.72373	-642.17035	-709.32086	1.17576	498.16089	732.57452	0.68349	508.18082	-14.73873	1321.07983	-942.43689	
3416	34.150	-802.72723	18.33545	-636.81085	767.31201	19.12857	-641.98438	-710.21667	0.88076	498.30972	731.64722	0.37464	508.25418	-16.03777	1321.71460	-941.66968	
3417	34.160	-803.40387	18.44291	-636.27948	766.39545	19.55054	-641.72729	-711.29877	0.57131	498.39029	730.72296	-0.03559	508.23819	-16.58541	1322.43567	-940.94922	
3418	34.170	-804.70795	18.84905	-636.02911	765.45148	20.08341	-641.86523	-712.31854	0.27689	498.70270	729.65723	-0.38025	508.50137	-17.73393	1323.04626	-939.78748	
3419	34.180	-805.76288	19.24873	-636.18610	764.38226	20.51872	-641.51166	-713.11829	-0.03318	498.76547	728.68225	-0.63028	508.47644	-18.68626	1323.52759	-938.89081	
3420	34.190	-806.53729	19.70005	-636.24811	763.50507	20.86730	-641.53076	-714.51746	0.23593	498.63037	727.73553	-0.94556	508.57727	-19.51958	1324.16455	-937.88159	
3421	34.200	-807.54254	20.19265	-635.88861	762.50958	21.45728	-641.52167	-715.64716	-0.05728	498.67889	726.61438	-1.25900	508.88623	-20.62217	1324.72595	-936.52484	
3422	34.210	-808.63397	20.70345	-635.64777	761.59039	21.81618	-641.14020	-716.54242	-0.34562	498.78833	725.59833	-1.63011	508.79709	-21.60668	1325.13293	-935.45605	
3423	34.220	-809.43768	21.13990	-635.89246	760.57941	22.11570	-641.06146	-717.67163	-0.55781	499.03928	724.72290	-1.76849	508.98526	-22.50681	1325.90454	-934.73633	
3424	34.230	-810.34363	21.57981	-635.80469	759.59924	22.60876	-641.10626	-718.51880	-0.80822	499.13812	723.62317	-2.10115	508.96582	-23.85300	1326.65173	-933.56445	
3425	34.240	-811.41553	21.98218	-635.49103	758.82556	23.03145	-640.87335	-719.31793	-1.17081	499.21097	722.86432	-2.35296	509.01895	-24.45217	1327.27100	-932.94690	
3426	34.250	-812.35291	22.33294	-635.56421	757.71735	23.38471	-640.75195	-720.49530	-1.36994	499.30591	721.56458	-2.78888	509.21225	-25.38552	1327.64136	-932.19153	
3427	34.260	-813.13293	22.58975	-635.17102	756.65924	23.72111	-640.58313	-721.33240	-1.72601	499.46573	720.48566	-2.99449	509.20169	-26.48840	1328.22192	-931.35516	
3428	34.270	-814.46667	22.98066	-634.93951	755.71332	24.30490	-640.57318	-722.36908	-1.97698	499.67184	720.09875	-3.33426	509.28610	-26.94875	1328.93457	-930.67670	
3429	34.280	-815.30768	23.41738	-634.83551	755.06567	24.54806	-640.42346	-723.39551	-2.15818	499.75290	718.98138	-3.68351	509.30988	-28.38191	1329.59912	-929.56555	
3430	34.290	-816.11139	23.61101	-634.99561	753.82104	24.99835	-640.42041	-724.31171	-2.54065	499.76349	717.79913	-4.00588	509.72879	-29.15991	1330.21338	-928.84802	
3431	34.300	-817.09045	24.33960	-634.83704	752.72009	25.52737	-640.20673	-725.04492	-2.80506	499.87555	717.33600	-4.26479	509.79391	-30.22668	1330.64209	-927.73370	
3432	34.310	-818.25928	24.91572	-634.67291	752.08429	25.74185	-640.22467	-726.16919	-3.10741	499.95508	716.33081	-4.68901	509.78748	-31.17120	1331.15955	-926.57941	
3433	34.320	-819.05811	25.35547	-634.69360	750.90741	26.13303	-640.06903	-727.12036	-3.35150	500.17151	715.42889	-4.95325	509.86984	-32.10595	1331.92737	-925.66705	
3434	34.330	-819.78955	25.69708	-634.60583	749.92249	26.60332	-639.86511	-727.96112	-3.61384	500.29321	714.26410	-5.21782	510.07953	-32.71725	1332.42590	-924.75140	
3435	34.340	-820.93878	26.21126	-634.43402	749.15759	26.99357	-639.87854	-729.03333	-3.82322	500.32669	713.48883	-5.41720	510.15387	-34.32146	1333.03455	-923.41638	
3436	34.350	-821.74390	26.54487	-634.23492	748.22595	27.26619	-639.70343	-729.83075	-4.11192	500.40778	712.44983	-5.74530	509.95395	-34.72300	1333.53198	-922.91705	
